<svg xmlns="http://www.w3.org/2000/svg" width="1024" height="1024" viewBox="0 0 1024 1024" version="1.1"><path d="M 509.594 261.620 L 504.689 263.151 499.094 268.826 L 493.500 274.500 459 352.329 C 440.025 395.135, 424.369 430.516, 424.209 430.953 C 424.049 431.389, 428.774 433.682, 434.709 436.046 C 440.644 438.411, 452.835 443.650, 461.800 447.690 C 470.764 451.729, 483.477 457.730, 490.050 461.025 C 496.622 464.320, 502 467.205, 502 467.438 C 502 467.670, 499.341 466.779, 496.090 465.458 C 492.840 464.138, 482.152 460.592, 472.340 457.579 C 462.528 454.565, 438.125 447.793, 418.111 442.529 C 398.096 437.265, 373.571 430.519, 363.611 427.538 C 353.650 424.557, 337.400 419.346, 327.500 415.958 C 317.600 412.570, 302.075 406.866, 293 403.283 C 283.925 399.699, 269.750 393.617, 261.500 389.768 C 253.250 385.918, 241.100 379.826, 234.500 376.230 C 227.900 372.635, 217.837 366.813, 212.138 363.293 C 206.438 359.774, 196.988 353.692, 191.138 349.778 C 185.287 345.865, 176.900 339.937, 172.500 336.605 C 168.100 333.273, 160.267 326.993, 155.093 322.648 L 145.687 314.749 146.322 327.625 C 146.672 334.706, 147.831 344.325, 148.899 349 C 149.967 353.675, 152.264 361.508, 154.003 366.406 C 155.743 371.304, 158.964 379.094, 161.160 383.717 C 163.356 388.340, 168.223 396.713, 171.976 402.325 C 175.729 407.937, 182.140 416.347, 186.225 421.014 C 190.309 425.681, 196.766 432.217, 200.575 435.537 C 204.384 438.858, 209.750 443.412, 212.500 445.657 C 215.250 447.903, 222.004 452.687, 227.509 456.287 C 233.015 459.888, 242.690 465.550, 249.009 468.868 C 255.329 472.187, 266.800 477.430, 274.500 480.519 C 282.200 483.609, 295.025 488.163, 303 490.640 C 310.975 493.118, 324.627 496.902, 333.338 499.051 C 342.049 501.199, 354.874 504.111, 361.838 505.521 C 368.802 506.931, 383.050 509.371, 393.500 510.942 L 412.500 513.798 407.855 513.899 C 405.300 513.955, 394.500 513.309, 383.855 512.465 C 373.210 511.622, 358.425 510.246, 351 509.409 C 343.575 508.572, 331.200 507, 323.500 505.915 C 315.800 504.831, 302.300 502.585, 293.500 500.923 C 284.700 499.261, 270.525 496.156, 262 494.022 C 253.475 491.889, 241.325 488.372, 235 486.208 C 228.675 484.043, 221.809 481.558, 219.743 480.684 L 215.986 479.096 216.662 481.798 C 217.033 483.284, 218.783 488.187, 220.551 492.694 C 222.319 497.200, 225.394 503.800, 227.385 507.360 C 229.375 510.920, 233.628 517.358, 236.835 521.666 C 240.041 525.975, 246.972 533.605, 252.236 538.622 C 257.500 543.639, 265.986 550.538, 271.093 553.954 C 276.200 557.370, 283.544 561.759, 287.412 563.708 C 291.281 565.656, 298.381 568.769, 303.190 570.627 C 307.999 572.484, 316.336 575.106, 321.717 576.454 C 327.098 577.802, 336.900 579.650, 343.500 580.562 L 355.500 582.219 382 581.615 C 396.575 581.283, 410.300 580.784, 412.500 580.507 L 416.500 580.002 411 582.060 C 407.975 583.192, 399.650 585.628, 392.500 587.473 C 385.350 589.318, 375.039 591.355, 369.587 592 C 364.134 592.645, 356.511 593.022, 352.647 592.837 L 345.620 592.500 326.365 636.500 C 315.775 660.700, 306.802 682.006, 306.426 683.848 L 305.741 687.195 308.393 689.848 L 311.046 692.500 357.273 692.500 L 403.500 692.500 407.140 690.847 C 409.141 689.938, 412.697 687.463, 415.041 685.347 L 419.303 681.500 435.989 647.500 L 452.675 613.500 456.698 608.687 C 458.911 606.040, 463.145 602.053, 466.108 599.827 C 469.071 597.600, 473.971 594.542, 476.998 593.030 C 480.024 591.518, 486.126 589.084, 490.557 587.622 C 494.988 586.161, 503.088 584.049, 508.557 582.931 L 518.500 580.897 540.147 580.312 L 561.793 579.727 571.647 580.953 C 577.066 581.627, 585.739 583.044, 590.920 584.101 C 596.101 585.159, 603.109 586.880, 606.493 587.925 C 609.877 588.970, 615.485 591.021, 618.956 592.482 C 622.427 593.943, 628.057 596.900, 631.466 599.053 C 634.875 601.206, 640.167 605.591, 643.226 608.798 C 646.285 612.006, 650.380 617.789, 652.324 621.651 C 654.269 625.513, 659.997 637.859, 665.053 649.086 C 670.109 660.314, 675.493 671.975, 677.018 675 C 678.543 678.025, 681.434 682.187, 683.442 684.248 C 685.450 686.310, 688.535 688.785, 690.297 689.748 L 693.500 691.500 738.288 691.789 L 783.076 692.078 786.038 689.116 C 787.667 687.487, 789 685.126, 789 683.870 C 789 682.615, 783.094 667.392, 775.875 650.044 C 768.656 632.695, 755.104 600.275, 745.759 578 C 736.414 555.725, 714.243 502.625, 696.490 460 C 678.737 417.375, 655.873 362.452, 645.683 337.950 C 635.492 313.447, 625.495 289.253, 623.466 284.184 L 619.778 274.969 615.400 270.100 C 612.992 267.422, 608.880 264.166, 606.261 262.865 L 601.500 260.500 558 260.295 L 514.500 260.089 509.594 261.620 M 542.973 378.694 C 539.544 387.387, 530.035 411.325, 521.841 431.888 C 513.647 452.452, 507.097 469.430, 507.285 469.618 C 507.473 469.807, 513.674 472.609, 521.064 475.846 C 528.454 479.083, 540.125 484.543, 547 487.980 C 553.875 491.417, 566.250 498.085, 574.500 502.796 C 582.750 507.508, 595.073 514.897, 601.884 519.215 C 608.695 523.533, 614.409 526.924, 614.582 526.751 C 614.755 526.578, 601.230 489.776, 584.526 444.968 L 554.155 363.500 551.681 363.194 L 549.207 362.887 542.973 378.694" stroke="none" fill="#04a7f4" fill-rule="evenodd"/></svg>